# xmcd
#
# Track frame offsets: 
#        150
#        14897
#        31615
#        50297
#        65830
#        81935
#        101935
#        119260
#        133020
#        146050
#
# Disc length: 2263 seconds
#
# Revision: 23
# Processed by: cddbd v1.5.2PL0 Copyright (c) Steve Scherf et al.
# Submitted via: ExactAudioCopyFreeDBPlugin 1.0
#
DISCID=9208d50a
DTITLE=GRETCHEN WILSON - Here For The Party
DYEAR=2004
DGENRE=Country
TTITLE0=Here For The Party
TTITLE1=Redneck Woman
TTITLE2=When I Think About Cheatin'
TTITLE3=Homewrecker
TTITLE4=Holdin' You
TTITLE5=Chariot
TTITLE6=What Happened
TTITLE7=When It Rains
TTITLE8=The Bed [ft. Big and Rich]
TTITLE9=Pocahontas Proud
EXTD=
EXTT0=
EXTT1=
EXTT2=
EXTT3=
EXTT4=
EXTT5=
EXTT6=
EXTT7=
EXTT8=
EXTT9=
PLAYORDER=
